{
	"asset":{
		"version":"2.0",
		"generator":"Houdini GLTF 2.0 Exporter"
	},
	"accessors":[
		{
			"bufferView":0,
			"componentType":5125,
			"count":209682,
			"type":"SCALAR",
			"min":[0
			],
			"max":[73639
			]
		},
		{
			"bufferView":1,
			"componentType":5126,
			"count":73640,
			"type":"VEC3",
			"min":[-0.516306698,-0.527717233,-0.524722219
			],
			"max":[0.521305859,0.525828242,0.511627853
			]
		},
		{
			"bufferView":2,
			"componentType":5126,
			"count":73640,
			"type":"VEC2",
			"min":[0,0.000712275505
			],
			"max":[1.11749434,0.996824205
			]
		},
		{
			"bufferView":3,
			"componentType":5126,
			"count":73640,
			"type":"VEC3",
			"min":[-1,-0.999986649,-1
			],
			"max":[1,0.999978364,1
			]
		},
		{
			"bufferView":4,
			"componentType":5126,
			"count":73640,
			"type":"VEC3",
			"min":[-0.534137309,-0.036215432,-0.33976689
			],
			"max":[0.968559861,0.99769783,1.26138222
			]
		}
	],
	"buffers":[
		{
			"uri":"planet.bin",
			"byteLength":4078888,
			"name":"main_buffer"
		}
	],
	"bufferViews":[
		{
			"buffer":0,
			"byteLength":838728,
			"target":34963
		},
		{
			"buffer":0,
			"byteOffset":838728,
			"byteLength":883680,
			"target":34962
		},
		{
			"buffer":0,
			"byteOffset":1722408,
			"byteLength":589120,
			"target":34962
		},
		{
			"buffer":0,
			"byteOffset":2311528,
			"byteLength":883680,
			"target":34962
		},
		{
			"buffer":0,
			"byteOffset":3195208,
			"byteLength":883680,
			"target":34962
		}
	],
	"nodes":[
		{
			"name":"geo1",
			"mesh":0
		}
	],
	"meshes":[
		{
			"primitives":[
				{
					"attributes":{
						"COLOR":4,
						"NORMAL":3,
						"TEXCOORD":2,
						"POSITION":1
					},
					"indices":0
				}
			],
			"name":"attribpromote5"
		}
	],
	"scenes":[
		{
			"nodes":[0
			]
		}
	],
	"scene":0
}
