{
	"asset":{
		"version":"2.0",
		"generator":"Houdini GLTF 2.0 Exporter"
	},
	"accessors":[
		{
			"bufferView":0,
			"componentType":5123,
			"count":6540,
			"type":"SCALAR",
			"min":[0
			],
			"max":[1477
			]
		},
		{
			"bufferView":1,
			"componentType":5126,
			"count":1478,
			"type":"VEC3",
			"min":[-1.43363822,-0.0299999993,-1.39813495
			],
			"max":[1.3352263,0.0299999993,1.36076403
			]
		},
		{
			"bufferView":2,
			"componentType":5126,
			"count":1478,
			"type":"SCALAR",
			"min":[0.313664287
			],
			"max":[0.313664287
			]
		},
		{
			"bufferView":3,
			"componentType":5126,
			"count":1478,
			"type":"SCALAR",
			"min":[0
			],
			"max":[1
			]
		},
		{
			"bufferView":4,
			"componentType":5126,
			"count":1478,
			"type":"VEC2",
			"min":[0,0
			],
			"max":[1,1
			]
		}
	],
	"buffers":[
		{
			"uri":"test1_pointAtt_mask_data.bin",
			"byteLength":54464,
			"name":"main_buffer"
		}
	],
	"bufferViews":[
		{
			"buffer":0,
			"byteLength":13080,
			"target":34963
		},
		{
			"buffer":0,
			"byteOffset":13080,
			"byteLength":17736,
			"target":34962
		},
		{
			"buffer":0,
			"byteOffset":30816,
			"byteLength":5912,
			"target":34962
		},
		{
			"buffer":0,
			"byteOffset":36728,
			"byteLength":5912,
			"target":34962
		},
		{
			"buffer":0,
			"byteOffset":42640,
			"byteLength":11824,
			"target":34962
		}
	],
	"nodes":[
		{
			"name":"geo1",
			"mesh":0
		}
	],
	"meshes":[
		{
			"primitives":[
				{
					"attributes":{
						"TEXCOORD_0":4,
						"__mask":3,
						"_pscale":2,
						"POSITION":1
					},
					"indices":0
				}
			],
			"name":"polywire3"
		}
	],
	"scenes":[
		{
			"nodes":[0
			]
		}
	],
	"scene":0
}
