{
	"asset":{
		"version":"2.0",
		"generator":"Houdini GLTF 2.0 Exporter"
	},
	"accessors":[
		{
			"bufferView":0,
			"componentType":5125,
			"count":127596,
			"type":"SCALAR",
			"min":[0
			],
			"max":[37782
			]
		},
		{
			"bufferView":1,
			"componentType":5126,
			"count":37783,
			"type":"VEC3",
			"min":[-6.17621756,-7.02357626,-2.91683602
			],
			"max":[6.17621756,5.27357578,20.7552433
			]
		},
		{
			"bufferView":2,
			"componentType":5126,
			"count":37783,
			"type":"VEC2",
			"min":[0,0.0288204551
			],
			"max":[0.999985039,1
			]
		},
		{
			"bufferView":3,
			"componentType":5126,
			"count":37783,
			"type":"VEC3",
			"min":[-1,-1,-1
			],
			"max":[1,1,1
			]
		}
	],
	"buffers":[
		{
			"uri":"ShipTest1Clean_data.bin",
			"byteLength":1719440,
			"name":"main_buffer"
		}
	],
	"bufferViews":[
		{
			"buffer":0,
			"byteLength":510384,
			"target":34963
		},
		{
			"buffer":0,
			"byteOffset":510384,
			"byteLength":453396,
			"target":34962
		},
		{
			"buffer":0,
			"byteOffset":963780,
			"byteLength":302264,
			"target":34962
		},
		{
			"buffer":0,
			"byteOffset":1266044,
			"byteLength":453396,
			"target":34962
		}
	],
	"nodes":[
		{
			"name":"geo1",
			"mesh":0
		}
	],
	"meshes":[
		{
			"primitives":[
				{
					"attributes":{
						"NORMAL":3,
						"TEXCOORD_0":2,
						"POSITION":1
					},
					"indices":0
				}
			],
			"name":"attribdelete5"
		}
	],
	"scenes":[
		{
			"nodes":[0
			]
		}
	],
	"scene":0
}
